<?xml version="1.0" encoding="UTF-8"?>
<svg width="24px" height="24px" viewBox="0 0 24 24" version="1.1" xmlns="http://www.w3.org/2000/svg" xmlns:xlink="http://www.w3.org/1999/xlink">
    <!-- Generator: Sketch 60 (88103) - https://sketch.com -->
    <title>Shape@2x</title>
    <desc>Created with Sketch.</desc>
    <g id="Page-1" stroke="none" stroke-width="1" fill="none" fill-rule="evenodd">
        <g id="3.1.home-cartões---fatura-aberta-copy-11" transform="translate(-37.000000, -883.000000)" fill="#000000" fill-rule="nonzero">
            <g id="Group-16" transform="translate(36.000000, 883.000000)">
                <g id="icon-(3)" transform="translate(1.000000, -0.000000)">
                    <path d="M23.5969057,10.3580642 L21.5694221,8.46997157 L21.5694221,2.20924223 C21.5694221,1.81088924 21.2534379,1.48789515 20.8636255,1.48789515 L15.9832368,1.48789515 C15.5934713,1.48789515 15.2774402,1.81084133 15.2774402,2.20924223 L15.2774402,2.61042179 L12.8288786,0.330156303 C12.3562381,-0.11006807 11.643504,-0.110020163 11.1710511,0.330108396 L0.40302396,10.3581121 C0.024461605,10.7107132 -0.100647722,11.2539871 0.0843209572,11.7421192 C0.269336512,12.2302514 0.71980509,12.5456281 1.23200802,12.5456281 L2.95180424,12.5456281 L2.95180424,22.5928907 C2.95180424,22.9912437 3.26778849,23.3142857 3.65760084,23.3142857 L9.55977046,23.3142857 C9.94953594,23.3142857 10.2655671,22.9912916 10.2655671,22.5928907 L10.2655671,16.4925086 L13.7343626,16.4925086 L13.7343626,22.5929386 C13.7343626,22.9912916 14.0503469,23.3142857 14.4401592,23.3142857 L20.3420945,23.3142857 C20.7318599,23.3142857 21.0478911,22.9913395 21.0478442,22.5929386 L21.0478442,12.545676 L22.7680154,12.545676 C23.2801715,12.545676 23.7306869,12.2302514 23.9157025,11.7421671 C24.1006243,11.2539871 23.9755618,10.7107132 23.5969057,10.3580642 Z M20.3420945,11.1029819 C19.952329,11.1029819 19.6362979,11.425928 19.6362979,11.824329 L19.6362979,21.8715915 L15.1460027,21.8715915 L15.1460027,15.7711616 C15.1460027,15.3728086 14.8299716,15.0498145 14.4402061,15.0498145 L9.55977046,15.0498145 C9.17000499,15.0498145 8.85397386,15.3727607 8.85397386,15.7711616 L8.85397386,21.8715915 L4.36335057,21.8715915 L4.36335057,11.824329 C4.36335057,11.425976 4.04736632,11.1029819 3.65755397,11.1029819 L1.69897659,11.1029819 L12.0000352,1.50993271 L15.5079713,4.77681053 C15.7145962,4.96920808 16.0128618,5.01879261 16.268471,4.90347864 C16.5241272,4.78802095 16.6890802,4.52922325 16.6890802,4.2435972 L16.6890802,2.93058932 L20.1579227,2.93058932 L20.1579227,8.78855815 C20.1579227,8.99154331 20.2415476,9.18504274 20.3883601,9.32177148 L22.301,11.1029819 L20.3420945,11.1029819 Z" id="Shape"></path>
                </g>
            </g>
        </g>
    </g>
</svg>