<?xml version="1.0" encoding="UTF-8"?>
<svg width="24px" height="24px" viewBox="0 0 24 24" version="1.1" xmlns="http://www.w3.org/2000/svg" xmlns:xlink="http://www.w3.org/1999/xlink">
    <!-- Generator: Sketch 60 (88103) - https://sketch.com -->
    <title>Group 6 Copy@2x</title>
    <desc>Created with Sketch.</desc>
    <g id="Page-1" stroke="none" stroke-width="1" fill="none" fill-rule="evenodd">
        <g id="3.1.home-cartões---fatura-aberta-copy-11" transform="translate(-281.000000, -784.000000)" fill="#3858C1" fill-rule="nonzero">
            <g id="Group-6-Copy" transform="translate(281.000000, 784.000000)">
                <path d="M22.0710999,14.5304908 C21.7421423,14.5304908 21.4755331,14.7953318 21.4755331,15.1221076 L21.4755331,20.3750181 C21.4743699,21.3548835 20.6752403,22.1489442 19.6888328,22.1498686 L2.97783388,22.1498686 C1.99142641,22.1489442 1.19229676,21.3548835 1.19113355,20.3750181 L1.19113355,4.95808418 C1.19229676,3.97844988 1.99142641,3.18438916 2.97783388,3.18323367 L8.26581543,3.18323367 C8.59477305,3.18323367 8.86138221,2.91839267 8.86138221,2.59161684 C8.86138221,2.26507209 8.59477305,2 8.26581543,2 L2.97783388,2 C1.33397655,2.0018488 0.00186114618,3.32512924 -3.01980663e-13,4.95808418 L-3.01980663e-13,20.3752492 C0.00186114618,22.0082041 1.33397655,23.3314845 2.97783388,23.3333333 L19.6888328,23.3333333 C21.3326901,23.3314845 22.6648055,22.0082041 22.6666667,20.3752492 L22.6666667,15.1221076 C22.6666667,14.7953318 22.4000574,14.5304908 22.0710999,14.5304908 Z" id="Path"></path>
                <path d="M22.5289611,0.778787401 C21.4904858,-0.2595958 19.8068584,-0.2595958 18.7683829,0.778787401 L8.22620713,11.3200276 C8.15395935,11.3922689 8.10179319,11.4818206 8.07455603,11.5801427 L6.68822948,16.5846468 C6.63121603,16.7898308 6.68915271,17.0095554 6.83964976,17.1602698 C6.99037756,17.3107534 7.21012164,17.368685 7.41532381,17.3119074 L12.4202721,15.9254731 C12.5186029,15.8982383 12.6081625,15.8460768 12.6804103,15.7738354 L23.2223553,5.23236444 C24.2592149,4.19328882 24.2592149,2.51119566 23.2223553,1.47211998 L22.5289611,0.778787401 Z M9.51374124,11.704084 L18.1416968,3.07666328 L20.9242754,5.85899493 L12.296089,14.4864156 L9.51374124,11.704084 Z M8.95791799,12.8193247 L11.1809802,15.0424203 L8.10594804,15.8943147 L8.95791799,12.8193247 Z M22.3867738,4.39685714 L21.7600878,5.02348763 L18.9772783,2.24092519 L19.6041952,1.6142947 C20.1810234,1.03751769 21.1163207,1.03751769 21.6931489,1.6142947 L22.3867738,2.30762728 C22.9626787,2.88509672 22.9626787,3.81961855 22.3867738,4.39685714 L22.3867738,4.39685714 Z" id="Shape"></path>
            </g>
        </g>
    </g>
</svg>