<?xml version="1.0" encoding="UTF-8"?>
<svg width="24px" height="24px" viewBox="0 0 24 24" version="1.1" xmlns="http://www.w3.org/2000/svg" xmlns:xlink="http://www.w3.org/1999/xlink">
    <!-- Generator: Sketch 60 (88103) - https://sketch.com -->
    <title>influenciador@2x</title>
    <desc>Created with Sketch.</desc>
    <g id="Page-1" stroke="none" stroke-width="1" fill="none" fill-rule="evenodd">
        <g id="3.1.home-cartões---fatura-aberta-copy-11" transform="translate(-149.000000, -882.000000)" fill="#000000" fill-rule="nonzero">
            <g id="Group-14" transform="translate(141.000000, 882.000000)">
                <g id="influenciador" transform="translate(8.000000, 0.000000)">
                    <path d="M15.1978757,13.5965018 C15.0139677,13.4126179 14.7157589,13.4126179 14.5318039,13.5965018 L9.69057331,18.4371462 C9.13908483,18.9885625 8.40585476,19.2922418 7.62590593,19.2922418 C6.84595711,19.2922418 6.11267994,18.9885625 5.56119146,18.4371462 C4.42270449,17.2988081 4.42270449,15.4465954 5.56119146,14.3083045 L10.4024691,9.46766008 C10.5863771,9.28377615 10.5863771,8.98560635 10.4024691,8.80172242 L7.73837002,6.13792472 C7.65001884,6.04963218 7.53025494,6 7.40535764,6 C7.28046033,6 7.16069644,6.04963218 7.07234525,6.13792472 L2.23102051,10.978522 C-0.743673502,13.952874 -0.743673502,18.7924824 2.23102051,21.7668815 C3.40958577,22.9452926 4.90260778,23.6916589 6.54845474,23.9251279 C6.90152982,23.975231 7.25757191,24 7.61347272,24 C8.86173934,24 10.1071331,23.695379 11.2059657,23.1112826 C11.4356034,22.989227 11.5228243,22.704101 11.4007527,22.4744462 C11.2786341,22.2448385 10.9934707,22.1575819 10.763833,22.2797317 C8.29075332,23.5942781 5.32500746,23.2389889 3.23947677,21.4202568 L5.24659342,19.4134027 C5.92321469,19.944806 6.75209575,20.2340289 7.62590593,20.2340289 C8.657439,20.2340289 9.62722984,19.8323567 10.3565981,19.1030838 L12.7335558,16.7264841 L14.7316301,18.7242971 L13.8532517,19.6026077 C13.6693437,19.7864916 13.6693437,20.0846614 13.8532517,20.2685924 C14.0372068,20.4524764 14.3353214,20.4524764 14.5193236,20.2685924 L17.862069,16.9262371 C18.045977,16.7423532 18.045977,16.4441834 17.862069,16.2602995 L15.1978757,13.5965018 Z M7.40531054,7.1368312 L9.40338486,9.13469125 L7.9381492,10.5997353 L5.94007488,8.6018752 L7.40531054,7.1368312 Z M2.89709238,11.6445068 L5.27405011,9.26785995 L7.27212443,11.2656729 L4.89516669,13.6423197 C3.50297617,15.0343281 3.39913056,17.2329301 4.58136928,18.7466645 L2.57397005,20.7537541 C0.294829697,18.1299823 0.402254567,14.1389711 2.89709238,11.6445068 Z M15.397702,18.0583123 L13.3996277,16.0604994 L14.8648633,14.5954083 L16.8629377,16.5932212 L15.397702,18.0583123 Z" id="XMLID_1136_"></path>
                    <path d="M23.4809213,0.487652026 C22.7982186,-0.154692953 21.6925611,-0.162463079 20.9996521,0.4643853 C20.3066967,-0.162506731 19.2009928,-0.1546493 18.51829,0.487695678 C17.8272367,1.13794174 17.8272367,2.19594482 18.51829,2.84619088 L20.6713832,4.87214214 C20.7619865,4.95739526 20.8807033,5 20.9994201,5 C21.1181369,5 21.2368537,4.95739526 21.3274106,4.87218579 L23.4808286,2.84623453 C23.8156387,2.53123885 24,2.11243779 24,1.6669651 C24,1.22149242 23.8156851,0.802647701 23.4809213,0.487652026 Z M22.8248475,2.22881507 L20.9994665,3.9461439 L19.1743639,2.22885872 C18.8450743,1.91901403 18.8450743,1.41487253 19.1744102,1.10498418 C19.339055,0.950061836 19.5552875,0.872622489 19.7715664,0.872622489 C19.9878453,0.872622489 20.2040778,0.950061836 20.3687226,1.10498418 L20.6716151,1.38994701 C20.7585999,1.47179525 20.8766208,1.51780487 20.9996057,1.51780487 C21.1226369,1.51780487 21.2406578,1.47179525 21.3276426,1.38994701 L21.6304423,1.10502784 C21.9597319,0.795183142 22.4954652,0.795226794 22.8247547,1.10502784 C22.98425,1.25514842 23.0721162,1.45472716 23.0721162,1.66700876 C23.0721162,1.87929035 22.9843427,2.07873814 22.8248475,2.22881507 L22.8248475,2.22881507 Z" id="XMLID_1157_"></path>
                    <path d="M13.6713432,7.87214212 C13.7619464,7.95739526 13.8806629,8 13.9993795,8 C14.1180961,8 14.2368127,7.95739526 14.3273694,7.87218578 L16.4807832,5.84623431 C16.8155927,5.5312386 17,5.11243749 17,4.66696476 C17,4.22149203 16.8156391,3.80269092 16.4809223,3.48765156 C15.7981745,2.84530652 14.6924727,2.83758004 13.9996115,3.46442848 C13.3078172,2.83849674 12.2043887,2.84526286 11.5214552,3.48472685 C11.5203882,3.48573085 11.5192748,3.48673486 11.5182542,3.48773886 C10.8272486,4.13798499 10.8272486,5.19598818 11.5182542,5.84623431 L13.6713432,7.87214212 Z M12.1722392,4.10699179 C12.1729814,4.106337 12.1736773,4.10563857 12.1744196,4.10498378 C12.5036621,3.79513906 13.0394407,3.79513906 13.3687296,4.10498378 L13.6715288,4.38994664 C13.7585134,4.47179489 13.8765341,4.51780451 13.9995651,4.51780451 C14.1225961,4.51780451 14.2405704,4.47179489 14.3276014,4.38994664 L14.6304469,4.10498378 C14.9597358,3.79513906 15.4954681,3.79518271 15.824757,4.10498378 C15.9842519,4.25506073 16.072118,4.45463949 16.072118,4.66692111 C16.0720716,4.87920272 15.9842055,5.07878149 15.8247106,5.22885843 L13.9993331,6.94618745 L12.174234,5.22890209 C11.8457802,4.9196685 11.8450843,4.41696747 12.1722392,4.10699179 L12.1722392,4.10699179 Z" id="XMLID_1160_"></path>
                    <path d="M20.2279379,7 C19.7663103,7 19.3316789,7.16493541 19.0000232,7.46517109 C18.6683675,7.16497905 18.2336897,7 17.7721084,7 C17.3001368,7 16.8564139,7.17244239 16.5220679,7.48559707 C16.5210474,7.48651362 16.5200269,7.48747381 16.5190064,7.48843401 C16.1842893,7.80337814 16,8.22211068 16,8.66751047 C16,9.11291027 16.1843356,9.53159916 16.5190064,9.8465433 L18.6718,11.8721631 C18.7623907,11.9574022 18.881091,12 18.9997913,12 C19.1184915,12 19.2371918,11.9574022 19.3277362,11.8722067 L21.4808544,9.84658694 C21.815618,9.53164281 22,9.11291027 22,8.66751047 C22,8.22211068 21.8156644,7.80337814 21.4809936,7.48839036 C21.1462764,7.17348987 20.7012547,7 20.2279379,7 L20.2279379,7 Z M20.8249646,9.22931215 L18.9998377,10.94636 L17.174989,9.22931215 C17.0155159,9.07925978 16.9276619,8.87975733 16.9276619,8.66751047 C16.9276619,8.45622381 17.0147274,8.25750698 17.1729016,8.10767284 C17.1736438,8.10697451 17.1743396,8.10631983 17.1750818,8.10562151 C17.3345548,7.95556913 17.5465826,7.87290503 17.7721084,7.87290503 C17.9976807,7.87290503 18.2097085,7.95556913 18.3692279,8.10566515 L18.6719855,8.39058135 C18.853167,8.56101606 19.1467867,8.56101606 19.3280145,8.39058135 L19.6308185,8.10566515 C19.7902915,7.95561278 20.0023193,7.87294867 20.2278916,7.87294867 C20.4534174,7.87294867 20.6654916,7.95561278 20.8249646,8.1057088 C20.9844377,8.25576117 21.0722917,8.45530726 21.0722917,8.66751047 C21.0722917,8.87971369 20.9844377,9.07925978 20.8249646,9.22931215 Z" id="XMLID_1168_"></path>
                    <path d="M13.2134835,10.1349221 L12.134939,11.2134698 C11.9550203,11.3933889 11.9550203,11.6851299 12.134939,11.8650491 C12.2249214,11.9550317 12.3428246,12 12.4607277,12 C12.5786309,12 12.6965341,11.9549856 12.7865165,11.8650491 L13.865061,10.7865015 C14.0449797,10.6065823 14.0449797,10.3148413 13.865061,10.1349221 C13.6851884,9.95500292 13.3935404,9.955049 13.2134835,10.1349221 L13.2134835,10.1349221 Z" id="XMLID_1169_"></path>
                    <path d="M9.30990378,5 C9.3892332,5 9.46850064,4.96972397 9.52902031,4.90923388 L9.90924374,4.52900162 C10.0302521,4.40799046 10.0302521,4.21176954 9.90924374,4.09075837 C9.7882044,3.96974721 9.59205001,3.96974721 9.47097969,4.09075837 L9.09075626,4.47099063 C8.96974791,4.5920018 8.96974791,4.78822272 9.09075626,4.90923388 C9.15130692,4.96975496 9.23060535,5 9.30990378,5 Z" id="XMLID_1173_"></path>
                    <path d="M18.4710107,14.0907478 L18.0907563,14.4709845 C17.9697479,14.5919971 17.9697479,14.7882203 18.0907563,14.9092328 C18.1512759,14.9697546 18.2305744,15 18.3098728,15 C18.3891712,15 18.4684697,14.9697236 18.5289893,14.9092328 L18.9092437,14.5289961 C19.0302521,14.4079836 19.0302521,14.2117604 18.9092437,14.0907478 C18.7882664,13.9697662 18.592112,13.9697352 18.4710107,14.0907478 L18.4710107,14.0907478 Z" id="XMLID_1174_"></path>
                    <path d="M12.5,21 C12.3685,21 12.2395,21.0535 12.1465,21.1465 C12.05355,21.2395 12,21.3685 12,21.5 C12,21.632 12.0535,21.7605 12.1465,21.8535 C12.2395,21.9465 12.3685,22 12.5,22 C12.632,22 12.7605,21.9465 12.8535,21.8535 C12.94645,21.7605 13,21.632 13,21.5 C13,21.3685 12.9465,21.2395 12.8535,21.1465 C12.76095,21.0535 12.63195,21 12.5,21 Z" id="XMLID_1175_"></path>
                </g>
            </g>
        </g>
    </g>
</svg>