<svg id="Layer_1" data-name="Layer 1" xmlns="http://www.w3.org/2000/svg" xmlns:xlink="http://www.w3.org/1999/xlink" viewBox="0 0 513.3 157.95">
  <defs>
    <style>
      .cls-1 {
        fill: #38c147;
      }

      .cls-2 {
        fill: url(#linear-gradient);
      }

      .cls-3 {
        fill: #0000ae;
      }
    </style>
    <linearGradient id="linear-gradient" x1="237.57" y1="193.85" x2="249.69" y2="208.69" gradientUnits="userSpaceOnUse">
      <stop offset="0" stop-color="#38c147" stop-opacity="0"/>
      <stop offset="0.2" stop-color="#2eb94b" stop-opacity="0.17"/>
      <stop offset="0.64" stop-color="#16a656" stop-opacity="0.61"/>
      <stop offset="1" stop-color="#00945f"/>
    </linearGradient>
  </defs>
  <title>logo</title>
  <path class="cls-1" d="M211.4,181.07" transform="translate(-174.43 -94.26)"/>
  <g>
    <path class="cls-1" d="M235,179.86v22.53q-5.79-7.08-10.4-9.72A20.21,20.21,0,0,0,214,190a21,21,0,0,0-15.91,6.7,23.55,23.55,0,0,0-6.33,16.81q0,10.32,6.11,17a20.59,20.59,0,0,0,15.75,6.63,21.55,21.55,0,0,0,10.78-2.64q4.51-2.55,10.62-9.95v22.39a44.47,44.47,0,0,1-20.65,5.35q-17,0-28.49-11T174.43,213.7A37.21,37.21,0,0,1,186,186q11.6-11.31,28.48-11.3A42.52,42.52,0,0,1,235,179.86Z" transform="translate(-174.43 -94.26)"/>
    <path class="cls-1" d="M294.29,174.66q16.88,0,28.49,11.3a37.24,37.24,0,0,1,11.6,27.74q0,16.43-11.45,27.51t-28.49,11a44.47,44.47,0,0,1-20.65-5.35V224.47q6.1,7.4,10.62,9.95a21.55,21.55,0,0,0,10.78,2.64,20.59,20.59,0,0,0,15.75-6.63q6.1-6.63,6.11-17a23.55,23.55,0,0,0-6.33-16.81,21,21,0,0,0-15.91-6.7,20.21,20.21,0,0,0-10.62,2.71q-4.6,2.64-10.4,9.72V179.86A42.52,42.52,0,0,1,294.29,174.66Z" transform="translate(-174.43 -94.26)"/>
    <path class="cls-1" d="M256.51,212.87a36.49,36.49,0,0,1,11.39-27.06,40.15,40.15,0,0,1,55.62.08,37.38,37.38,0,0,1,11.3,27.58q0,16.5-11.38,27.66t-28.11,11.08q-16.5,0-27.66-11.31Q256.51,229.76,256.51,212.87Zm17.34.3q0,11,5.88,17.41t15.9,6.48q9.94,0,15.9-6.41t6-17.1q0-10.71-6-17.11T295.63,190q-9.72,0-15.75,6.48T273.85,213.17Z" transform="translate(-174.43 -94.26)"/>
    <path class="cls-1" d="M232.52,179.38c4.36-2.47,26.87,27.06,43.8,48.58l4.88,21.52c-14.82-1.25-33.57-29.27-47.91-49.06C217.72,178.94,232.52,179.38,232.52,179.38Z" transform="translate(-174.43 -94.26)"/>
    <path class="cls-2" d="M262.32,210.16c-13.46-17-26.58-32.6-29.8-30.78,0,0-14.8-.44.77,21,5.14,7.09,10.85,15.24,16.75,22.84A20.09,20.09,0,0,1,262.32,210.16Z" transform="translate(-174.43 -94.26)"/>
    <path class="cls-1" d="M276.56,179.38c-4-3-34.41,34.88-43.8,48.58-4,5.81-4.87,21.52-4.87,21.52,11.52-.1,33.56-29.27,47.91-49.06C291.36,178.94,276.56,179.38,276.56,179.38Z" transform="translate(-174.43 -94.26)"/>
  </g>
  <g>
    <path class="cls-3" d="M175.28,120.27H191v5.48q6.43-6.18,14.44-6.18a16.78,16.78,0,0,1,15.13,8.35,16.89,16.89,0,0,1,15.13-8.44,18.86,18.86,0,0,1,5.92.92,12.1,12.1,0,0,1,4.78,2.87,13.74,13.74,0,0,1,3.18,5.08,21.7,21.7,0,0,1,1.17,7.57v29H235v-22a26.61,26.61,0,0,0-.48-5.57,8.77,8.77,0,0,0-1.39-3.39,4.63,4.63,0,0,0-2.13-1.65,7.77,7.77,0,0,0-2.61-.44q-7.58,0-7.57,11v22H205.12v-22a29.91,29.91,0,0,0-.44-5.61,10.33,10.33,0,0,0-1.26-3.52,4.23,4.23,0,0,0-2.13-1.79,9,9,0,0,0-3-.47,8.77,8.77,0,0,0-2.79.43,4.91,4.91,0,0,0-2.3,1.7,9.23,9.23,0,0,0-1.57,3.48,24.43,24.43,0,0,0-.56,5.78v22H175.28Z" transform="translate(-174.43 -94.26)"/>
    <path class="cls-3" d="M275.74,145.23q0,10.17,9.57,10.17a8.55,8.55,0,0,0,7.74-4.17h15.22q-4.61,15.32-23,15.31a30.29,30.29,0,0,1-10.35-1.7,23,23,0,0,1-8-4.83,21.29,21.29,0,0,1-5.18-7.48,24.83,24.83,0,0,1-1.82-9.74,27.29,27.29,0,0,1,1.74-10,21,21,0,0,1,4.95-7.61,21.94,21.94,0,0,1,7.79-4.83,29.43,29.43,0,0,1,10.3-1.7,28.83,28.83,0,0,1,10.18,1.7,20.53,20.53,0,0,1,7.65,4.91,21.32,21.32,0,0,1,4.79,7.88,31.19,31.19,0,0,1,1.65,10.48v1.65Zm18.44-9.13a9.41,9.41,0,0,0-3.22-5.31,10,10,0,0,0-11.87-.09,8.64,8.64,0,0,0-2.91,5.4Z" transform="translate(-174.43 -94.26)"/>
    <path class="cls-3" d="M316.8,103.13a8.58,8.58,0,0,1,.69-3.43,8.89,8.89,0,0,1,1.91-2.83A9.12,9.12,0,0,1,322.23,95a8.78,8.78,0,0,1,6.87,0,9,9,0,0,1,2.83,1.91,8.89,8.89,0,0,1,1.91,2.83,8.78,8.78,0,0,1,0,6.87,9.05,9.05,0,0,1-4.74,4.74,8.9,8.9,0,0,1-6.87,0,9.15,9.15,0,0,1-2.83-1.92,9,9,0,0,1-1.91-2.82A8.66,8.66,0,0,1,316.8,103.13Zm16.78,17.14v44.62H317.84V120.27Z" transform="translate(-174.43 -94.26)"/>
  </g>
  <g>
    <path class="cls-1" d="M347.58,178.29H364v6.55q8.6-8.52,19.37-8.52,12.38,0,19.29,7.79,6,6.63,6,21.63V249.2H392.21V209.6q0-10.48-2.91-14.49T379,191q-8.16,0-11.58,5.39T364,215V249.2H347.58Z" transform="translate(-174.43 -94.26)"/>
    <path class="cls-1" d="M492.43,217.6H441.61q.64,8.75,5.68,13.91a17.3,17.3,0,0,0,12.88,5.1,16.7,16.7,0,0,0,10.12-2.92q3.93-2.91,9-10.77l13.83,7.72a54.86,54.86,0,0,1-6.77,9.35,36.31,36.31,0,0,1-7.64,6.41,31,31,0,0,1-8.81,3.68,43.29,43.29,0,0,1-10.27,1.16q-15.87,0-25.48-10.19t-9.61-27.23q0-16.81,9.32-27.23,9.39-10.26,24.9-10.27t24.75,10q9,9.9,9,27.45Zm-16.82-13.39q-3.42-13.11-16.53-13.11a17.18,17.18,0,0,0-5.61.91,16.15,16.15,0,0,0-4.76,2.62,16.53,16.53,0,0,0-3.68,4.12,19,19,0,0,0-2.33,5.46Z" transform="translate(-174.43 -94.26)"/>
    <path class="cls-1" d="M564,181.35v21.77q-5.61-6.85-10-9.4a19.62,19.62,0,0,0-10.26-2.62,20.21,20.21,0,0,0-15.36,6.48,22.72,22.72,0,0,0-6.12,16.24q0,10,5.9,16.38a19.88,19.88,0,0,0,15.21,6.41,20.84,20.84,0,0,0,10.42-2.55q4.37-2.48,10.26-9.61v21.62a43,43,0,0,1-19.95,5.17q-16.46,0-27.52-10.63T505.5,214a36,36,0,0,1,11.21-26.8q11.2-10.92,27.52-10.92A41.1,41.1,0,0,1,564,181.35Z" transform="translate(-174.43 -94.26)"/>
    <path class="cls-1" d="M595.3,193.58V249.2H578.92V193.58h-7V178.29h7v-26H595.3v26H608v15.29Z" transform="translate(-174.43 -94.26)"/>
    <path class="cls-1" d="M671.27,178.29h16.46V249.2H671.27v-7.42q-10.11,9.47-21.76,9.46a31.35,31.35,0,0,1-24.32-10.63q-9.54-10.85-9.54-27.08,0-15.94,9.54-26.58a30.77,30.77,0,0,1,23.88-10.63q12.38,0,22.2,10.2ZM632.4,213.53q0,10.18,5.46,16.6A17.86,17.86,0,0,0,652,236.61q9.1,0,14.71-6.26,5.59-6.48,5.6-16.46t-5.6-16.45a18.52,18.52,0,0,0-14.56-6.34A18.13,18.13,0,0,0,638,197.51,23.65,23.65,0,0,0,632.4,213.53Z" transform="translate(-174.43 -94.26)"/>
  </g>
</svg>
