<?xml version="1.0" encoding="UTF-8"?>
<svg width="267px" height="221px" viewBox="0 0 267 221" version="1.1" xmlns="http://www.w3.org/2000/svg" xmlns:xlink="http://www.w3.org/1999/xlink">
    <!-- Generator: Sketch 60 (88103) - https://sketch.com -->
    <title>undraw_order_confirmed_aaw7@2x</title>
    <desc>Created with Sketch.</desc>
    <defs>
        <linearGradient x1="50.5%" y1="100.7%" x2="50.5%" y2="0%" id="linearGradient-1">
            <stop stop-color="#808080" stop-opacity="0.251" offset="0%"></stop>
            <stop stop-color="#808080" stop-opacity="0.122" offset="54%"></stop>
            <stop stop-color="#808080" stop-opacity="0.102" offset="100%"></stop>
        </linearGradient>
    </defs>
    <g id="Page-1" stroke="none" stroke-width="1" fill="none" fill-rule="evenodd">
        <g id="3.1.home-cartões---fatura-aberta-copy-10" transform="translate(-23.000000, -132.000000)" fill-rule="nonzero">
            <g id="undraw_order_confirmed_aaw7" transform="translate(23.000000, 132.000000)">
                <g id="Group_2" transform="translate(81.000000, 0.000000)">
                    <rect id="Rectangle_76" fill="#3F3D56" x="107.681011" y="50.0966818" width="3.27167292" height="26.7693636" rx="1.63583646"></rect>
                    <rect id="Rectangle_80" fill="#3F3D56" x="0" y="0" width="109.446" height="220.838977" rx="10"></rect>
                    <path d="M94.2128123,5.75220455 L81.6582064,5.75220455 L81.6582064,7.25163636 C81.6582067,9.13661094 80.9037339,10.9443258 79.5608722,12.2768439 C78.2180105,13.6093619 76.3968401,14.3574509 74.4982601,14.3564318 L34.5712922,14.3564318 C32.6727122,14.3574509 30.8515418,13.6093619 29.5086801,12.2768439 C28.1658183,10.9443258 27.4113456,9.13661094 27.4113458,7.25163636 L27.4113458,5.75220455 L15.6566542,5.75220455 C10.8560722,5.75220455 6.96443164,9.61595663 6.96443164,14.3821364 L6.96443164,206.471909 C6.96443164,211.238089 10.8560722,215.101841 15.6566542,215.101841 L94.2128123,215.101841 C99.0133943,215.101841 102.905048,211.238089 102.905048,206.471909 L102.905048,14.3969091 C102.908986,12.1055504 101.994945,9.9066964 100.364408,8.28507376 C98.7338721,6.66345113 96.5207134,5.75220455 94.2128123,5.75220455 Z" id="Path_176" fill="#FFFFFF"></path>
                    <rect id="Rectangle_81" fill="#E6E8EC" x="44.1660965" y="6.59513636" width="15.2831823" height="3.07952273" rx="1.53976136"></rect>
                    <ellipse id="Ellipse_5" fill="#E6E8EC" cx="63.5223539" cy="8.13504545" rx="1.76141823" ry="1.74879545"></ellipse>
                    <ellipse id="Ellipse_11" fill="#FFFFFF" cx="55.3913807" cy="113.130727" rx="20.7040295" ry="20.5556591"></ellipse>
                    <path d="M82.6229839,110.260386 C82.6229839,125.433544 70.2330336,137.732932 54.9503566,137.732932 C39.6676796,137.732932 27.2795148,125.431771 27.2795148,110.258614 C27.2795148,95.0854562 39.6694651,82.7860682 54.9521421,82.7860682 C62.2911424,82.7860682 69.3294623,85.6810427 74.5187518,90.8334768 C79.7080412,95.9859109 82.6229839,102.973979 82.6229839,110.260386 Z M51.753378,124.802659 L72.2800456,104.423091 C72.6155642,104.090889 72.804134,103.639779 72.804134,103.16933 C72.804134,102.69888 72.6155642,102.24777 72.2800456,101.915568 L69.7544236,99.4263636 C69.4204348,99.0934638 68.9666595,98.9063326 68.4933981,98.9063326 C68.0201367,98.9063326 67.5663614,99.0934638 67.2323727,99.4263636 L50.4907158,116.048341 L42.6736971,108.269023 C41.9751308,107.579315 40.8466413,107.579315 40.1480751,108.269023 L37.6224531,110.791318 C36.9277674,111.484878 36.9277674,112.605281 37.6224531,113.298841 L49.2283512,124.817432 C49.5629506,125.150546 50.0173168,125.337765 50.4911622,125.337765 C50.9650076,125.337765 51.4193738,125.150546 51.7539732,124.817432 L51.753378,124.802659 Z" id="Path_222" fill="#3858C1"></path>
                </g>
                <g id="Group_1" transform="translate(10.000000, 29.000000)">
                    <rect id="Rectangle_77" fill="#3F3D56" x="74.3305031" y="14.5425682" width="1.63229448" height="7.92202273" rx="0.816147239"></rect>
                    <rect id="Rectangle_78" fill="#3F3D56" x="74.2713129" y="29.0485" width="1.83931288" height="13.7876818" rx="0.919656442"></rect>
                    <rect id="Rectangle_79" fill="#3F3D56" x="74.3007607" y="47.6606591" width="1.75067485" height="13.9061591" rx="0.875337423"></rect>
                    <path d="M52.6071166,84.4332273 C52.703202,84.5263167 52.8488082,84.5450584 52.9652025,84.4793182 C52.8442602,84.4811726 52.7236758,84.4656517 52.6071166,84.4332273 L52.6071166,84.4332273 Z" id="Path_190" fill="url(#linearGradient-1)"></path>
                    <path d="M66.1422331,89.7452045 L65.7888589,91.6762955 L65.5161718,93.1535682 L65.0202699,95.8557955 L60.2117301,99.2334318 C60.2117301,99.2334318 59.7782577,98.8611591 59.0632638,98.2743864 C57.0926135,96.6464318 52.950773,93.3314318 49.9093988,91.5519091 C49.1270899,91.0516576 48.2806769,90.6603453 47.3933742,90.3887045 L66.1422331,89.7452045 Z" id="Path_192" fill="#FEB9B9"></path>
                    <path d="M62.6146748,91.182 C62.6146748,91.182 68.2212515,92.1475455 68.5495951,89.7452045 C68.8779387,87.3428636 65.6637055,86.0446364 62.9397791,85.8830227 C60.2158528,85.7214091 43.8669939,86.8485682 43.8669939,86.8485682 C43.8669939,86.8485682 40.9831656,90.7075 51.3982822,91.3533636 L62.6146748,91.182 Z" id="Path_194" fill="#3F3D56"></path>
                    <rect id="Rectangle_82" fill="#2F2E41" x="45.5455215" y="11.9094773" width="29.3300613" height="34.8943636"></rect>
                    <rect id="Rectangle_83" fill="#000000" opacity="0.1" x="45.5455215" y="12.0678409" width="29.3300613" height="34.8943636"></rect>
                    <path d="M11.1707485,71.6438864 C10.6878037,71.7659091 10.0705767,72.2347955 9.38414724,72.9125682 C6.42817178,75.8487955 2.19445399,82.7393864 2.19445399,82.7393864 C-3.21835583,76.2704091 2.77133742,71.1593409 5.32446626,69.4028636 C5.94522699,68.9777045 6.36220859,68.7437045 6.36220859,68.7437045 L11.1707485,71.6438864 Z" id="Path_198" fill="#FEB9B9"></path>
                    <path d="M65.8203681,22.9225455 C65.8203681,22.9225455 67.2633129,33.0525 72.2314601,35.4645909 C77.1996074,37.8766818 65.8203681,42.3847273 65.8203681,42.3847273 L50.2751411,36.5914545 C50.2751411,36.5914545 59.0906503,33.696 57.3267239,25.1730227 L65.8203681,22.9225455 Z" id="Path_199" fill="#FEB9B9"></path>
                    <path d="M49.152,83.86625 L48.8003926,85.7908409 L48.5147485,87.2737273 L48.0188466,89.9759545 L43.2103067,93.3503409 C43.2103067,93.3503409 42.7768344,92.9813182 42.0618405,92.3948409 C40.0911902,90.7668864 35.9496442,87.4518864 32.9035583,85.6723636 C32.1216259,85.1714204 31.2751159,84.7800633 30.3875337,84.5091591 L49.152,83.86625 Z" id="Path_200" fill="#FEB9B9"></path>
                    <path d="M44.9924908,86.2396661 C44.9924908,86.2396661 50.0242454,86.2753864 50.3269693,83.86625 C50.6296933,81.4571136 47.5847853,80.1656818 44.9924908,80.0040682 C42.4001963,79.8424545 26.6497178,81.0446591 26.6497178,81.0446591 C26.6497178,81.0446591 24.4152147,85.5946591 34.3223558,86.2393409 L44.9924908,86.2396661 Z" id="Path_202" fill="#2F2E41"></path>
                    <path d="M80.2719018,124.085886 C80.0519264,123.977159 79.8316564,123.865182 79.6149202,123.756455 L79.0236074,123.008364 L71.2691043,113.14225 L71.2691043,113.313614 C71.2166871,114.961364 70.6583558,128.0175 66.3030184,129.223545 C61.6555583,130.508773 56.0489816,130.831705 53.4932025,122.148591 C50.9374233,113.465477 46.2675828,94.4907955 41.472,93.3639318 L48.6057423,87.4950227 C48.6057423,87.4950227 53.3288834,93.03775 55.2533006,98.3432273 C55.1811534,98.0137955 51.9195092,82.7234318 54.596319,80.0179545 L78,80.0179545 C78,80.0179545 81.6129571,90.3423182 84.089227,95.4566364 C86.0171779,99.4275455 88.9107239,108.815909 90.7738896,115.169364 C92.6182086,121.443045 86.1379141,126.982523 80.2719018,124.085886 Z" id="Path_204" fill="#3F3D56"></path>
                    <path d="M79.6052025,82.9007045 C75.9922454,85.046 60.1316319,84.1726364 54.9717791,83.8234091 L53.5659387,83.7211818 C53.4148712,83.7211818 53.588908,83.6355 53.588908,83.6355 L53.7334969,82.1756591 L57.579681,72.3686364 L78.1731534,60.3867727 C77.7558773,61.6489545 77.6180613,63.5800455 77.6510429,65.7912273 C77.7461595,72.8960227 79.6052025,82.9007045 79.6052025,82.9007045 Z" id="Path_205" fill="#000000" opacity="0.1"></path>
                    <path d="M79.6052025,82.4164545 C75.9922454,84.56175 60.1316319,83.6883864 54.9717791,83.3391591 L53.5659387,83.2401818 L53.3327117,83.2203864 L53.588908,83.1545 L54.856638,82.8250682 L57.5793865,71.8911818 L78.1728589,59.9125682 C77.7558773,61.17475 77.6177669,63.1058409 77.6507485,65.3170227 C77.7461595,72.4150227 79.6052025,82.4164545 79.6052025,82.4164545 Z" id="Path_206" fill="#EFEFEF"></path>
                    <path d="M77.6377914,65.3102273 C73.4500123,66.2790227 64.2340123,69.1215909 60.6932025,75.9870682 C58.3317791,80.55775 56.344638,82.5183864 54.9585276,83.3388636 L53.5526871,83.2398864 C53.5618939,83.211767 53.5695617,83.1831637 53.5756564,83.1542045 L54.8433865,82.8247727 L57.566135,71.8908864 L78.1596074,59.9125682 C77.7473374,61.1679545 77.6048098,63.0990455 77.6377914,65.3102273 Z" id="Path_207" fill="#000000" opacity="0.1"></path>
                    <path d="M6.36220859,68.7507955 L11.1707485,71.6441818 C10.6878037,71.7662045 10.0705767,72.2350909 9.38414724,72.9128636 C8.98336196,71.7396136 6.46880982,70.1019091 5.32446626,69.4034545 C5.94493252,68.9847955 6.36220859,68.7507955 6.36220859,68.7507955 Z" id="Path_208" fill="#000000" opacity="0.1"></path>
                    <path d="M52.6957546,83.4280909 C52.5877083,83.4845465 52.4558656,83.4660392 52.367411,83.382 C52.4740344,83.4133399 52.5846526,83.4288679 52.6957546,83.4280909 L52.6957546,83.4280909 Z" id="Path_209" fill="#000000" opacity="0.1"></path>
                    <path d="M63.5773252,34.8219773 C63.5773252,34.8219773 59.2484908,35.3029773 56.2038773,32.0869545 C56.2038773,32.0869545 43.3940613,35.7875227 39.0558037,44.1477045 C34.717546,52.5078864 5.22581595,68.9121136 5.22581595,68.9121136 C5.22581595,68.9121136 10.3562209,71.8055 9.87327607,73.2520455 L29.2679264,61.9952273 C29.2679264,61.9952273 36.1652025,57.0126818 38.0801963,55.8858182 C39.9951902,54.7589545 50.5840491,47.8453182 52.8273865,66.6583864 C55.0707239,85.4714545 52.8273865,83.2206818 52.8273865,83.2206818 C52.8273865,83.2206818 56.0330798,84.3478409 60.6805399,75.3415 C65.328,66.3351591 79.7500859,64.246 79.7500859,64.246 L80.551362,54.7619091 C80.551362,54.7619091 83.4122209,48.4743409 81.2083436,45.8645909 C80.54066,45.0918654 80.0965376,44.1505075 79.9241227,43.1425682 C79.5595583,40.7337273 79.9241227,36.7199773 85.0280245,33.3851818 C92.8811779,28.2377727 95.9264232,24.0594545 95.9264232,24.0594545 C95.9264232,24.0594545 96.0865767,21.0015 91.2783313,19.5546591 C86.4700859,18.1078182 66.9175951,10.2289318 66.9175951,10.2289318 L66.2606135,12.9639545 L81.6877546,23.8880909 C81.6877546,23.8880909 73.995681,30.1490682 67.8932025,29.9975 C67.892908,29.9975 69.0260613,34.6603636 63.5773252,34.8219773 Z" id="Path_210" fill="#3858C1"></path>
                    <path d="M66.5462577,27.3316136 C66.1672404,26.0426394 65.8710733,24.7305863 65.6595828,23.4035455 L57.1659387,25.6549091 C57.5403928,27.2817242 57.4734831,28.9794964 56.9721718,30.5715682 C60.5225617,31.5220855 64.2949787,30.2454665 66.5462577,27.3316136 Z" id="Path_211" fill="#000000" opacity="0.1"></path>
                    <ellipse id="Ellipse_10" fill="#FEB9B9" cx="59.4914356" cy="21.2355" rx="9.13413497" ry="9.16440909"></ellipse>
                    <path d="M69.4268466,95.0406364 C69.4268466,95.0406364 74.7147975,105.493523 73.1119509,108.706295" id="Path_213" fill="#000000" opacity="0.1"></path>
                    <path d="M64.3488589,0.0694318182 C66.884319,0.359568182 69.2919755,1.45009091 71.7882699,2.04661364 C72.4121552,2.2411845 73.0763289,2.26616337 73.7129816,2.119 C74.681816,1.81911364 75.470135,0.800977273 76.4751902,0.830522727 C77.0935951,0.850318182 77.6410307,1.27222727 78.150184,1.67729545 C78.9665762,2.30424307 79.7350539,2.99161755 80.4491779,3.73365909 C82.1701104,5.60861364 83.2375951,8.13297727 84.8074601,10.1727955 C86.3773252,12.2126136 88.6162454,14.6046136 90.8463313,13.6692045 C89.3291779,19.60075 84.5972025,23.3113636 79.220908,23.6806818 C77.0762209,23.8284091 74.8788221,23.3807955 72.8030429,24.0101136 C72.2860276,24.2227803 71.7400179,24.3560499 71.183411,24.4054318 C69.9878282,24.4054318 69.0254724,23.3048636 68.2798528,22.2338409 C66.5324172,19.7162727 65.1498405,16.8592273 63.1824294,14.5623636 C62.5254479,13.8012727 61.7668712,13.0794773 60.8472147,12.9412045 C59.9275583,12.8029318 59.0835828,13.2443409 58.265816,13.6695 C56.9159264,14.3715 55.536589,15.09625 54.4888344,16.3058409 C53.4410798,17.5154318 52.7808589,19.3011591 53.2143313,20.9193636 C53.4475583,21.7959773 53.9799755,22.5869091 53.9893988,23.5028182 C54.0091288,24.9659091 52.7216687,26.0336818 52.4687117,27.4571818 C52.4115936,28.055132 52.3907453,28.6560122 52.4062822,29.2565 C52.2946748,31.2065 51.0222331,32.8019545 49.6970798,34.0313409 C49.1782086,34.5058409 48.6075092,35.0199318 48.4555583,35.7547273 C48.3536687,36.2587727 48.4555583,36.7888182 48.3898896,37.30025 C48.1961227,38.5656818 46.9381104,39.2082955 45.8246871,39.3731591 C44.5237833,39.5664184 43.1950476,39.4083426 41.9752638,38.9152045 C43.5321718,38.1765682 44.4912883,36.0747045 44.1299632,34.1929545 C43.6340613,31.5829091 41.019681,29.7079545 41.2440736,27.0521136 C41.3669666,26.237218 41.6105396,25.445322 41.9667239,24.7026591 C42.5364359,23.2674537 42.9505023,21.7748853 43.2017669,20.25075 C43.398773,19.07425 43.494184,17.8253636 43.1260859,16.70175 C42.7977423,15.6800682 42.1113129,14.8663864 41.5297178,14.0027727 C40.7415952,12.8279209 40.1193471,11.5492726 39.6806871,10.2032273 C39.5217214,9.80395094 39.461111,9.37208955 39.504,8.94429545 C39.6357139,8.43905357 39.9161879,7.98538942 40.3088098,7.64252273 C41.7376196,6.13570455 43.2647853,4.57127273 45.1797791,4.13961364 C46.0934545,3.9874031 47.0226708,3.95196175 47.945227,4.03413636 C49.5497276,4.08462831 51.1557547,4.01629134 52.7502331,3.82968182 C54.0639018,3.67486364 56.2839755,3.69465909 57.3976933,2.84109091 C58.4354356,2.04336364 59.0202699,1.04177273 60.2977178,0.534477273 C61.591432,0.0533498071 62.9820732,-0.106116062 64.3506258,0.0697272727 L64.3488589,0.0694318182 Z" id="Path_221" fill="#2F2E41"></path>
                </g>
                <ellipse id="Ellipse_9" fill="#3858C1" cx="244" cy="217.5" rx="13" ry="2.5"></ellipse>
                <path d="M250.557084,213.9803 C251.225233,213.496816 251.712084,212.845397 251.953404,212.111991 C252.135518,211.373203 251.778457,210.497153 250.976045,210.211385 C250.079156,209.908026 249.119064,210.459954 248.394841,211.014766 C247.670618,211.569578 246.834651,212.205421 245.883029,212.086038 C246.8796,211.288853 247.329983,210.086998 247.069217,208.920668 C247.026521,208.682991 246.911916,208.459981 246.737566,208.27531 C246.24172,207.804124 245.336686,208.004248 244.743429,208.378544 C242.847679,209.556222 242.319253,211.83891 242.308177,213.886293 C242.114985,213.147505 242.278856,212.376132 242.271689,211.627539 C242.264521,210.878947 242.034842,210.012702 241.309316,209.617355 C240.861735,209.404735 240.358822,209.300112 239.851097,209.313997 C238.998189,209.28516 238.050151,209.362442 237.466993,209.914082 C236.737884,210.598081 236.934659,211.746922 237.561797,212.495515 C238.188936,213.244107 239.147724,213.724809 240.029954,214.244441 C240.735139,214.617107 241.336435,215.12558 241.789199,215.73211 C241.843499,215.816953 241.887195,215.90678 241.919514,216 L247.245793,216 C248.44675,215.461956 249.560226,214.782986 250.556107,213.981453 L250.557084,213.9803 Z" id="Path_179" fill="#3858C1"></path>
                <ellipse id="Ellipse_9-2" fill="#EFEFEF" cx="62.5" cy="218.5" rx="8.5" ry="1.5"></ellipse>
                <path d="M67.1278068,216.738516 C67.5282599,216.436191 67.8200515,216.028938 67.9647093,215.570454 C68.0959741,215.096563 67.8523229,214.602202 67.3790551,214.382179 C66.8413423,214.192601 66.2666377,214.537611 65.83191,214.884533 C65.3971824,215.231454 64.8964614,215.628912 64.3261958,215.554338 C64.9232925,215.055817 65.1929544,214.304507 65.0364384,213.575517 C65.0108341,213.42692 64.9421125,213.287496 64.8375704,213.17205 C64.541636,212.877576 63.9983005,213.002686 63.6422914,213.236517 C62.5059033,213.974068 62.1889576,215.398906 62.182447,216.680058 C62.0667366,216.218133 62.1649869,215.735994 62.1605479,215.268059 C62.1561088,214.800124 62.0184993,214.259527 61.5834758,214.011491 C61.3151457,213.878594 61.0136547,213.813213 60.7092855,213.821914 C60.1979109,213.803885 59.6297169,213.852235 59.2799224,214.197245 C58.8428273,214.625024 58.9609051,215.34318 59.3367418,215.811114 C59.7125785,216.279049 60.2872831,216.579806 60.8164138,216.903782 C61.2393657,217.136281 61.6001587,217.453725 61.8720118,217.832549 C61.9047569,217.885564 61.9311519,217.941711 61.9507304,218 L65.1435666,218 C65.8634931,217.66333 66.5309253,217.238549 67.1278068,216.73715 L67.1278068,216.738516 Z" id="Path_179-2" fill="#EFEFEF"></path>
                <ellipse id="Ellipse_12" fill="#EFEFEF" cx="13.5" cy="218.5" rx="8.5" ry="1.5"></ellipse>
                <path d="M17.1278068,216.738516 C17.5282599,216.436191 17.8200515,216.028938 17.9647093,215.570454 C18.0959741,215.096563 17.8523229,214.602202 17.3790551,214.382179 C16.8413423,214.192601 16.2666377,214.537611 15.83191,214.884533 C15.3971824,215.231454 14.8964614,215.628912 14.3261958,215.554338 C14.9232925,215.055817 15.1929544,214.304507 15.0364384,213.575517 C15.0108341,213.42692 14.9421125,213.287496 14.8375704,213.17205 C14.541636,212.877576 13.9983005,213.002686 13.6422914,213.236517 C12.5059033,213.974068 12.1889576,215.398906 12.182447,216.680058 C12.0667366,216.218133 12.1649869,215.735994 12.1605479,215.268059 C12.1561088,214.800124 12.0184993,214.259527 11.5834758,214.011491 C11.3151457,213.878594 11.0136547,213.813213 10.7092855,213.821914 C10.1979109,213.803885 9.62971685,213.852235 9.27992239,214.197245 C8.84282728,214.625024 8.96090511,215.34318 9.33674179,215.811114 C9.71257848,216.279049 10.2872831,216.579806 10.8164138,216.903782 C11.2393657,217.136281 11.6001587,217.453725 11.8720118,217.832549 C11.9047569,217.885564 11.9311519,217.941711 11.9507304,218 L15.1435666,218 C15.8634931,217.66333 16.5309253,217.238549 17.1278068,216.73715 L17.1278068,216.738516 Z" id="Path_223" fill="#EFEFEF"></path>
                <rect id="Rectangle_22" fill="#2F2E41" x="0" y="219" width="267" height="1"></rect>
                <path d="M253.461926,15.0364513 C253.461926,15.0364513 224.911747,13.3476274 228.275493,32.9605614 C228.275493,32.9605614 227.59735,36.4276263 230.811711,38 C230.811711,38 230.862617,36.5473441 233.74124,37.0425542 C234.766141,37.2090761 235.807324,37.2581248 236.843789,37.188711 C238.241922,37.0985426 239.572299,36.5653665 240.634481,35.6695122 L240.634481,35.6695122 C240.634481,35.6695122 248.660384,32.4184148 251.779902,19.5604792 C251.779902,19.5604792 254.08886,16.7549818 253.99735,16.033407 L249.179445,18.0510836 C249.179445,18.0510836 250.827229,21.458438 249.518516,24.2894832 C249.518516,24.2894832 249.362465,18.1728809 248.43676,18.3059668 C248.250407,18.3327028 245.93448,19.4859155 245.93448,19.4859155 C245.93448,19.4859155 248.765832,25.4195247 246.629591,29.7347147 C246.629591,29.7347147 247.439848,22.4215281 245.049379,19.9148797 L241.658664,21.8562103 C241.658664,21.8562103 244.968171,27.9861805 242.723452,32.9890798 C242.723452,32.9890798 243.299176,25.3167396 240.943251,22.3282492 L237.871306,24.6783434 C237.871306,24.6783434 240.980521,30.7183024 239.085176,34.8677293 C239.085176,34.8677293 238.837614,25.9387972 237.206496,25.2641588 C237.206496,25.2641588 234.517559,27.5910818 234.10728,28.5416951 C234.10728,28.5416951 236.236551,32.9296665 234.914203,35.2432215 C234.914203,35.2432215 234.103947,29.2929766 233.439136,29.2597052 C233.439136,29.2597052 230.760502,33.2020766 230.482336,35.9080567 C230.482336,35.9080567 230.597784,31.8890421 232.791295,28.8874807 C232.791295,28.8874807 230.200837,29.3229804 228.6885,30.9669472 C228.6885,30.9669472 229.105446,28.1813533 233.452469,27.9353821 C233.452469,27.9353821 235.666584,24.9436239 236.25655,24.7641957 C236.25655,24.7641957 231.936798,24.4077157 229.315737,25.5487487 C229.315737,25.5487487 231.621362,22.9194118 237.050141,24.1159962 L240.084815,21.6859911 C240.084815,21.6859911 234.395142,20.9246093 231.981038,21.765902 C231.981038,21.765902 234.758151,19.438979 240.902041,21.1343383 L244.204882,19.1995433 C244.204882,19.1995433 239.352736,18.1755545 236.463811,18.5347081 C236.463811,18.5347081 239.515454,16.9225274 245.174523,18.6710617 L247.548023,17.6313285 C247.548023,17.6313285 243.994591,16.9465898 242.953439,16.8369722 C241.912286,16.7273547 241.85835,16.448112 241.85835,16.448112 C244.109617,16.080125 246.420893,16.3321909 248.534633,17.1762224 C248.534633,17.1762224 253.54677,15.3456977 253.461926,15.0364513 Z" id="Path_177" fill="#3858C1"></path>
                <path d="M215.771037,5.01574862 C215.771037,5.01574862 203.704824,4.28325581 205.114564,12.8093807 C205.114564,12.8093807 204.8308,14.3158066 206.187759,15 C206.187759,15 206.209893,14.3603906 207.429227,14.5810244 C207.862274,14.654445 208.302433,14.6759342 208.7405,14.6450425 C209.33281,14.6055631 209.896005,14.3718871 210.344051,13.9797115 L210.344051,13.9797115 C210.344051,13.9797115 213.741557,12.566169 215.062478,6.97601713 C215.062478,6.97601713 216.037208,5.75767267 215.9989,5.44415546 L213.960339,6.3204032 C213.960339,6.3204032 214.655845,7.80110754 214.109599,9.03231278 C214.109599,9.03231278 214.042914,6.37441847 213.652455,6.43557862 C213.573001,6.43557862 212.591745,6.95000977 212.591745,6.95000977 C212.591745,6.95000977 213.792067,9.53073941 212.887144,11.4049836 C212.887144,11.4049836 213.229931,8.22608484 212.217177,7.13549079 L210.781898,7.99287605 C210.781898,7.99287605 212.182274,10.6567721 211.232799,12.8316727 C211.232799,12.8316727 211.477404,9.49615821 210.480257,8.19779113 L209.181469,9.22122333 C209.181469,9.22122333 210.496148,11.8468228 209.695934,13.6510472 C209.695934,13.6510472 209.588103,9.76852093 208.89884,9.47443778 C208.89884,9.47443778 207.762082,10.4850092 207.587283,10.9008411 C207.587283,10.9008411 208.489085,12.8196693 207.930354,13.8142362 C207.930354,13.8142362 207.587283,11.2269333 207.29529,11.2135009 C207.29529,11.2135009 206.161653,12.9282714 206.044175,14.0917432 C206.100947,13.0063676 206.438112,11.9547299 207.022309,11.0408807 C206.368138,11.1656847 205.764428,11.4802793 205.28539,11.9459937 C205.28539,11.9459937 205.46331,10.7339367 207.301817,10.6284783 C207.301817,10.6284783 208.254412,9.32696752 208.489369,9.24694489 C208.489369,9.24694489 206.66051,9.09347293 205.552128,9.589899 C205.552128,9.589899 206.526857,8.44814762 208.822792,8.96629412 L210.092919,7.91085286 C210.092919,7.91085286 207.683763,7.58790441 206.662213,7.94400509 C206.662213,7.94400509 207.836996,6.93343366 210.437693,7.66907021 L211.834947,6.82797527 C211.834947,6.82797527 209.780495,6.38356391 208.55804,6.54218018 C208.55804,6.54218018 209.850301,5.84169642 212.244702,6.5993392 L213.24497,6.14835455 C213.24497,6.14835455 211.741021,5.85084187 211.298349,5.80282829 C210.855677,5.75481472 210.834679,5.63335181 210.834679,5.63335181 C211.787892,5.47364421 212.76643,5.58438042 213.660684,5.95315651 C213.660684,5.95315651 215.80821,5.14892913 215.771037,5.01574862 Z" id="Path_178" fill="#3F3D56"></path>
                <path d="M21.7710372,139.015749 C21.7710372,139.015749 9.70482409,138.283256 11.1145637,146.809381 C11.1145637,146.809381 10.8307997,148.315807 12.1877592,149 C12.1877592,149 12.2098928,148.360391 13.4292267,148.581024 C13.8622737,148.654445 14.3024326,148.675934 14.7405002,148.645043 C15.3328102,148.605563 15.8960055,148.371887 16.3440506,147.979712 L16.3440506,147.979712 C16.3440506,147.979712 19.741557,146.566169 21.0624785,140.976017 C21.0624785,140.976017 22.0372078,139.757673 21.9988997,139.444155 L19.9603391,140.320403 C19.9603391,140.320403 20.6558447,141.801108 20.1095989,143.032313 C20.1095989,143.032313 20.0429144,140.374418 19.6524551,140.435579 C19.5730012,140.435579 18.5917453,140.95001 18.5917453,140.95001 C18.5917453,140.95001 19.792067,143.530739 18.8871436,145.404984 C18.8871436,145.404984 19.2299305,142.226085 18.2171768,141.135491 L16.7818984,141.992876 C16.7818984,141.992876 18.1822738,144.656772 17.2327994,146.831673 C17.2327994,146.831673 17.477404,143.496158 16.4802573,142.197791 L15.1814694,143.221223 C15.1814694,143.221223 16.4961481,145.846823 15.6959336,147.651047 C15.6959336,147.651047 15.5881033,143.768521 14.8988405,143.474438 C14.8988405,143.474438 13.7620819,144.485009 13.5872832,144.900841 C13.5872832,144.900841 14.4890853,146.819669 13.9303539,147.814236 C13.9303539,147.814236 13.5872832,145.226933 13.2952901,145.213501 C13.2952901,145.213501 12.1616529,146.928271 12.0441746,148.091743 C12.1009475,147.006368 12.4381122,145.95473 13.0223091,145.040881 C12.3681376,145.165685 11.764428,145.480279 11.2853896,145.945994 C11.2853896,145.945994 11.4633096,144.733937 13.3018166,144.628478 C13.3018166,144.628478 14.2544124,143.326968 14.489369,143.246945 C14.489369,143.246945 12.66051,143.093473 11.5521278,143.589899 C11.5521278,143.589899 12.5268571,142.448148 14.8227917,142.966294 L16.0929194,141.910853 C16.0929194,141.910853 13.683763,141.587904 12.6622126,141.944005 C12.6622126,141.944005 13.8369956,140.933434 16.4376927,141.66907 L17.8349467,140.827975 C17.8349467,140.827975 15.7804953,140.383564 14.5580399,140.54218 C14.5580399,140.54218 15.8503012,139.841696 18.2447019,140.599339 L19.24497,140.148355 C19.24497,140.148355 17.7410208,139.850842 17.2983489,139.802828 C16.8556771,139.754815 16.8346785,139.633352 16.8346785,139.633352 C17.7878916,139.473644 18.76643,139.58438 19.6606843,139.953157 C19.6606843,139.953157 21.8082103,139.148929 21.7710372,139.015749 Z" id="Path_224" fill="#3F3D56"></path>
            </g>
        </g>
    </g>
</svg>