<?xml version="1.0" encoding="UTF-8"?>
<svg width="24px" height="24px" viewBox="0 0 24 24" version="1.1" xmlns="http://www.w3.org/2000/svg" xmlns:xlink="http://www.w3.org/1999/xlink">
    <!-- Generator: Sketch 60 (88103) - https://sketch.com -->
    <title>midia-social@2x</title>
    <desc>Created with Sketch.</desc>
    <g id="Page-1" stroke="none" stroke-width="1" fill="none" fill-rule="evenodd">
        <g id="3.1.home-cartões---fatura-aberta-copy-11" transform="translate(-258.000000, -882.000000)" fill="#000000" fill-rule="nonzero">
            <g id="Group-13" transform="translate(258.000000, 882.000000)">
                <g id="Group-15">
                    <g id="midia-social">
                        <path d="M20.4852905,3.51470948 C18.218811,1.24822997 15.2052612,0 12,0 C8.79455569,0 5.78118895,1.24822997 3.51470948,3.51470948 C1.24822997,5.78118895 0,8.79455569 0,12 C0,15.2052612 1.24822997,18.218811 3.51470948,20.4852905 C5.78118895,22.75177 8.79455569,24 12,24 C15.2052612,24 18.218811,22.75177 20.4852905,20.4852905 C22.75177,18.218811 24,15.2052612 24,12 C24,8.79455569 22.75177,5.78118895 20.4852905,3.51470948 Z M6.01593019,20.7368775 C6.51782227,17.8471069 9.02197266,15.7155762 12,15.7155762 C14.9782104,15.7155762 17.4821777,17.8471069 17.9840698,20.7368775 C16.2802734,21.9074707 14.2188721,22.59375 12,22.59375 C9.78112791,22.59375 7.71972656,21.9074707 6.01593019,20.7368775 Z M8.18444822,10.4937744 C8.18444822,8.38970948 9.89611819,6.67822266 12,6.67822266 C14.1038818,6.67822266 15.8155518,8.38989258 15.8155518,10.4937744 C15.8155518,12.5976563 14.1038818,14.3093262 12,14.3093262 C9.89611819,14.3093262 8.18444822,12.5976563 8.18444822,10.4937744 Z M19.2020874,19.7614746 C18.8236084,18.4161987 18.0719604,17.1956177 17.0183716,16.2421875 C16.3720093,15.6571655 15.6362915,15.1955566 14.8452759,14.8701782 C16.2749634,13.9376221 17.2219849,12.3242798 17.2219849,10.4937744 C17.2219849,7.61444091 14.8793335,5.27197266 12,5.27197266 C9.12066652,5.27197266 6.77819822,7.61444091 6.77819822,10.4937744 C6.77819822,12.3242798 7.72521975,13.9376221 9.15472411,14.8701782 C8.36389163,15.1955566 7.62799073,15.6569824 6.98162841,16.2420044 C5.92822266,17.1954346 5.17639163,18.4160156 4.79791261,19.7614746 C2.71325681,17.8253174 1.40625,15.0626221 1.40625,12 C1.40625,6.15856931 6.15856931,1.40625 12,1.40625 C17.8414307,1.40625 22.59375,6.15856931 22.59375,12 C22.59375,15.0628052 21.2867432,17.8255005 19.2020874,19.7614746 Z" id="Shape"></path>
                    </g>
                </g>
            </g>
        </g>
    </g>
</svg>